<mxfile host="65bd71144e">
    <diagram id="c0BsKFeQtic6asYKpsaW" name="stop-flow-diagram">
        <mxGraphModel dx="948" dy="465" grid="1" gridSize="10" guides="1" tooltips="1" connect="1" arrows="1" fold="1" page="1" pageScale="1" pageWidth="850" pageHeight="1100" math="0" shadow="0">
            <root>
                <mxCell id="0"/>
                <mxCell id="1" parent="0"/>
                <mxCell id="2" style="edgeStyle=none;html=1;entryX=0.5;entryY=0;entryDx=0;entryDy=0;" parent="1" source="3" target="6" edge="1">
                    <mxGeometry relative="1" as="geometry"/>
                </mxCell>
                <mxCell id="3" value="&lt;span style=&quot;font-size: 10px;&quot;&gt;USER_ID&lt;/span&gt;" style="rounded=0;whiteSpace=wrap;html=1;" parent="1" vertex="1">
                    <mxGeometry x="120" y="120" width="120" height="40" as="geometry"/>
                </mxCell>
                <mxCell id="4" style="edgeStyle=none;html=1;entryX=0.5;entryY=0;entryDx=0;entryDy=0;" parent="1" source="6" target="8" edge="1">
                    <mxGeometry relative="1" as="geometry"/>
                </mxCell>
                <mxCell id="5" style="edgeStyle=orthogonalEdgeStyle;html=1;entryX=0;entryY=0.5;entryDx=0;entryDy=0;" parent="1" source="6" target="9" edge="1">
                    <mxGeometry relative="1" as="geometry"/>
                </mxCell>
                <mxCell id="6" value="" style="rhombus;whiteSpace=wrap;html=1;fillColor=#76608a;fontColor=#ffffff;strokeColor=#432D57;" parent="1" vertex="1">
                    <mxGeometry x="150" y="210" width="60" height="60" as="geometry"/>
                </mxCell>
                <mxCell id="7" value="&lt;font style=&quot;font-size: 9px;&quot;&gt;USER_ID = root?&lt;/font&gt;" style="text;html=1;strokeColor=none;fillColor=none;align=center;verticalAlign=middle;whiteSpace=wrap;rounded=0;" parent="1" vertex="1">
                    <mxGeometry x="125" y="225" width="110" height="30" as="geometry"/>
                </mxCell>
                <mxCell id="8" value="&lt;font style=&quot;font-size: 11px;&quot;&gt;exit&lt;/font&gt;" style="ellipse;whiteSpace=wrap;html=1;fillColor=#e51400;fontColor=#ffffff;strokeColor=#B20000;" parent="1" vertex="1">
                    <mxGeometry x="140" y="320" width="80" height="40" as="geometry"/>
                </mxCell>
                <mxCell id="16" style="edgeStyle=orthogonalEdgeStyle;html=1;entryX=0.5;entryY=0;entryDx=0;entryDy=0;" parent="1" source="9" target="12" edge="1">
                    <mxGeometry relative="1" as="geometry"/>
                </mxCell>
                <mxCell id="9" value="&lt;font style=&quot;font-size: 10px;&quot;&gt;Install CLI tools&lt;/font&gt;" style="rounded=0;whiteSpace=wrap;html=1;" parent="1" vertex="1">
                    <mxGeometry x="320" y="120" width="120" height="40" as="geometry"/>
                </mxCell>
                <mxCell id="10" value="&lt;font style=&quot;font-size: 11px;&quot;&gt;no&lt;/font&gt;" style="text;html=1;strokeColor=none;fillColor=none;align=center;verticalAlign=middle;whiteSpace=wrap;rounded=0;" parent="1" vertex="1">
                    <mxGeometry x="130" y="260" width="60" height="30" as="geometry"/>
                </mxCell>
                <mxCell id="11" value="&lt;font style=&quot;font-size: 11px;&quot;&gt;yes&lt;/font&gt;" style="text;html=1;strokeColor=none;fillColor=none;align=center;verticalAlign=middle;whiteSpace=wrap;rounded=0;" parent="1" vertex="1">
                    <mxGeometry x="200" y="240" width="60" height="30" as="geometry"/>
                </mxCell>
                <mxCell id="18" style="edgeStyle=orthogonalEdgeStyle;html=1;" parent="1" source="12" target="17" edge="1">
                    <mxGeometry relative="1" as="geometry"/>
                </mxCell>
                <mxCell id="23" style="edgeStyle=orthogonalEdgeStyle;html=1;" parent="1" source="12" target="19" edge="1">
                    <mxGeometry relative="1" as="geometry"/>
                </mxCell>
                <mxCell id="12" value="" style="rhombus;whiteSpace=wrap;html=1;fillColor=#76608a;fontColor=#ffffff;strokeColor=#432D57;" parent="1" vertex="1">
                    <mxGeometry x="350" y="210" width="60" height="60" as="geometry"/>
                </mxCell>
                <mxCell id="13" value="&lt;font style=&quot;font-size: 9px;&quot;&gt;aws installed?&lt;/font&gt;" style="text;html=1;strokeColor=none;fillColor=none;align=center;verticalAlign=middle;whiteSpace=wrap;rounded=0;" parent="1" vertex="1">
                    <mxGeometry x="325" y="225" width="110" height="30" as="geometry"/>
                </mxCell>
                <mxCell id="14" value="&lt;font style=&quot;font-size: 11px;&quot;&gt;no&lt;/font&gt;" style="text;html=1;strokeColor=none;fillColor=none;align=center;verticalAlign=middle;whiteSpace=wrap;rounded=0;" parent="1" vertex="1">
                    <mxGeometry x="395" y="210" width="60" height="30" as="geometry"/>
                </mxCell>
                <mxCell id="15" value="&lt;font style=&quot;font-size: 11px;&quot;&gt;yes&lt;/font&gt;" style="text;html=1;strokeColor=none;fillColor=none;align=center;verticalAlign=middle;whiteSpace=wrap;rounded=0;" parent="1" vertex="1">
                    <mxGeometry x="325" y="260" width="60" height="30" as="geometry"/>
                </mxCell>
                <mxCell id="24" style="edgeStyle=orthogonalEdgeStyle;html=1;entryX=0.5;entryY=0;entryDx=0;entryDy=0;" parent="1" source="17" target="19" edge="1">
                    <mxGeometry relative="1" as="geometry">
                        <Array as="points">
                            <mxPoint x="540" y="290"/>
                            <mxPoint x="380" y="290"/>
                        </Array>
                    </mxGeometry>
                </mxCell>
                <mxCell id="17" value="&lt;font style=&quot;font-size: 10px;&quot;&gt;Install AWS CLI&lt;/font&gt;" style="rounded=0;whiteSpace=wrap;html=1;" parent="1" vertex="1">
                    <mxGeometry x="480" y="200" width="120" height="40" as="geometry"/>
                </mxCell>
                <mxCell id="26" style="edgeStyle=orthogonalEdgeStyle;html=1;" parent="1" source="19" target="25" edge="1">
                    <mxGeometry relative="1" as="geometry"/>
                </mxCell>
                <mxCell id="30" style="edgeStyle=orthogonalEdgeStyle;html=1;entryX=0;entryY=0.5;entryDx=0;entryDy=0;" parent="1" source="19" target="28" edge="1">
                    <mxGeometry relative="1" as="geometry">
                        <Array as="points">
                            <mxPoint x="380" y="430"/>
                            <mxPoint x="640" y="430"/>
                            <mxPoint x="640" y="140"/>
                        </Array>
                    </mxGeometry>
                </mxCell>
                <mxCell id="19" value="" style="rhombus;whiteSpace=wrap;html=1;fillColor=#76608a;fontColor=#ffffff;strokeColor=#432D57;" parent="1" vertex="1">
                    <mxGeometry x="350" y="320" width="60" height="60" as="geometry"/>
                </mxCell>
                <mxCell id="20" value="&lt;font style=&quot;font-size: 9px;&quot;&gt;az installed?&lt;/font&gt;" style="text;html=1;strokeColor=none;fillColor=none;align=center;verticalAlign=middle;whiteSpace=wrap;rounded=0;" parent="1" vertex="1">
                    <mxGeometry x="320" y="335" width="110" height="30" as="geometry"/>
                </mxCell>
                <mxCell id="21" value="&lt;font style=&quot;font-size: 11px;&quot;&gt;no&lt;/font&gt;" style="text;html=1;strokeColor=none;fillColor=none;align=center;verticalAlign=middle;whiteSpace=wrap;rounded=0;" parent="1" vertex="1">
                    <mxGeometry x="395" y="320" width="60" height="30" as="geometry"/>
                </mxCell>
                <mxCell id="22" value="&lt;font style=&quot;font-size: 11px;&quot;&gt;yes&lt;/font&gt;" style="text;html=1;strokeColor=none;fillColor=none;align=center;verticalAlign=middle;whiteSpace=wrap;rounded=0;" parent="1" vertex="1">
                    <mxGeometry x="325" y="380" width="60" height="30" as="geometry"/>
                </mxCell>
                <mxCell id="29" style="edgeStyle=orthogonalEdgeStyle;html=1;" parent="1" source="25" edge="1">
                    <mxGeometry relative="1" as="geometry">
                        <mxPoint x="680" y="140" as="targetPoint"/>
                        <Array as="points">
                            <mxPoint x="640" y="340"/>
                            <mxPoint x="640" y="140"/>
                        </Array>
                    </mxGeometry>
                </mxCell>
                <mxCell id="25" value="&lt;font style=&quot;font-size: 10px;&quot;&gt;Install AWS CLI&lt;/font&gt;" style="rounded=0;whiteSpace=wrap;html=1;" parent="1" vertex="1">
                    <mxGeometry x="480" y="320" width="120" height="40" as="geometry"/>
                </mxCell>
                <mxCell id="38" style="edgeStyle=orthogonalEdgeStyle;html=1;entryX=0.5;entryY=0;entryDx=0;entryDy=0;" parent="1" source="28" target="32" edge="1">
                    <mxGeometry relative="1" as="geometry"/>
                </mxCell>
                <mxCell id="28" value="&lt;font style=&quot;font-size: 10px;&quot;&gt;CSP authentication&lt;/font&gt;" style="rounded=0;whiteSpace=wrap;html=1;" parent="1" vertex="1">
                    <mxGeometry x="680" y="120" width="120" height="40" as="geometry"/>
                </mxCell>
                <mxCell id="31" style="edgeStyle=orthogonalEdgeStyle;html=1;entryX=0.5;entryY=0;entryDx=0;entryDy=0;fontColor=#FFFFFF;" parent="1" source="32" target="35" edge="1">
                    <mxGeometry relative="1" as="geometry"/>
                </mxCell>
                <mxCell id="40" style="edgeStyle=orthogonalEdgeStyle;html=1;entryX=0;entryY=0.5;entryDx=0;entryDy=0;" parent="1" source="32" target="39" edge="1">
                    <mxGeometry relative="1" as="geometry"/>
                </mxCell>
                <mxCell id="32" value="" style="rhombus;whiteSpace=wrap;html=1;fillColor=#76608a;fontColor=#ffffff;strokeColor=#432D57;" parent="1" vertex="1">
                    <mxGeometry x="707.5" y="210" width="60" height="60" as="geometry"/>
                </mxCell>
                <mxCell id="33" value="&lt;font size=&quot;1&quot;&gt;already logged in?&lt;/font&gt;" style="text;html=1;strokeColor=none;fillColor=none;align=center;verticalAlign=middle;whiteSpace=wrap;rounded=0;" parent="1" vertex="1">
                    <mxGeometry x="700" y="229" width="75" height="30" as="geometry"/>
                </mxCell>
                <mxCell id="34" style="edgeStyle=orthogonalEdgeStyle;html=1;entryX=0.5;entryY=1;entryDx=0;entryDy=0;fontSize=10;fontColor=#2A0A05;" parent="1" source="35" target="37" edge="1">
                    <mxGeometry relative="1" as="geometry"/>
                </mxCell>
                <mxCell id="42" style="edgeStyle=orthogonalEdgeStyle;html=1;entryX=0.5;entryY=1;entryDx=0;entryDy=0;" parent="1" source="35" target="8" edge="1">
                    <mxGeometry relative="1" as="geometry">
                        <Array as="points">
                            <mxPoint x="738" y="480"/>
                            <mxPoint x="180" y="480"/>
                        </Array>
                    </mxGeometry>
                </mxCell>
                <mxCell id="35" value="" style="rhombus;whiteSpace=wrap;html=1;fillColor=#76608a;fontColor=#ffffff;strokeColor=#432D57;" parent="1" vertex="1">
                    <mxGeometry x="707.5" y="305" width="60" height="60" as="geometry"/>
                </mxCell>
                <mxCell id="36" value="&lt;font size=&quot;1&quot;&gt;is creds file found?&lt;/font&gt;" style="text;html=1;strokeColor=none;fillColor=none;align=center;verticalAlign=middle;whiteSpace=wrap;rounded=0;" parent="1" vertex="1">
                    <mxGeometry x="700" y="320" width="75" height="30" as="geometry"/>
                </mxCell>
                <mxCell id="41" style="edgeStyle=orthogonalEdgeStyle;html=1;entryX=0;entryY=0.5;entryDx=0;entryDy=0;" parent="1" source="37" target="39" edge="1">
                    <mxGeometry relative="1" as="geometry"/>
                </mxCell>
                <mxCell id="37" value="&lt;font style=&quot;font-size: 10px;&quot; color=&quot;#2a0a05&quot;&gt;authenticate to aws/azure&lt;/font&gt;" style="rounded=0;whiteSpace=wrap;html=1;fontColor=#FFFFFF;" parent="1" vertex="1">
                    <mxGeometry x="797.5" y="255" width="120" height="35" as="geometry"/>
                </mxCell>
                <mxCell id="51" style="edgeStyle=none;html=1;entryX=0.5;entryY=0;entryDx=0;entryDy=0;" parent="1" source="39" target="47" edge="1">
                    <mxGeometry relative="1" as="geometry"/>
                </mxCell>
                <mxCell id="39" value="&lt;font style=&quot;font-size: 10px;&quot;&gt;Stop Instance&lt;/font&gt;" style="rounded=0;whiteSpace=wrap;html=1;fillColor=#fff2cc;strokeColor=#d6b656;" parent="1" vertex="1">
                    <mxGeometry x="960" y="120" width="120" height="40" as="geometry"/>
                </mxCell>
                <mxCell id="43" value="&lt;font style=&quot;font-size: 11px;&quot;&gt;no&lt;/font&gt;" style="text;html=1;strokeColor=none;fillColor=none;align=center;verticalAlign=middle;whiteSpace=wrap;rounded=0;" parent="1" vertex="1">
                    <mxGeometry x="680" y="260" width="60" height="30" as="geometry"/>
                </mxCell>
                <mxCell id="44" value="&lt;font style=&quot;font-size: 11px;&quot;&gt;yes&lt;/font&gt;" style="text;html=1;strokeColor=none;fillColor=none;align=center;verticalAlign=middle;whiteSpace=wrap;rounded=0;" parent="1" vertex="1">
                    <mxGeometry x="760" y="210" width="60" height="30" as="geometry"/>
                </mxCell>
                <mxCell id="45" value="&lt;font style=&quot;font-size: 11px;&quot;&gt;yes&lt;/font&gt;" style="text;html=1;strokeColor=none;fillColor=none;align=center;verticalAlign=middle;whiteSpace=wrap;rounded=0;" parent="1" vertex="1">
                    <mxGeometry x="760" y="335" width="60" height="30" as="geometry"/>
                </mxCell>
                <mxCell id="46" value="&lt;font style=&quot;font-size: 11px;&quot;&gt;no&lt;/font&gt;" style="text;html=1;strokeColor=none;fillColor=none;align=center;verticalAlign=middle;whiteSpace=wrap;rounded=0;" parent="1" vertex="1">
                    <mxGeometry x="690" y="360" width="60" height="30" as="geometry"/>
                </mxCell>
                <mxCell id="52" style="edgeStyle=none;html=1;entryX=0.5;entryY=0;entryDx=0;entryDy=0;" parent="1" source="47" target="49" edge="1">
                    <mxGeometry relative="1" as="geometry"/>
                </mxCell>
                <mxCell id="47" value="&lt;font style=&quot;font-size: 10px;&quot;&gt;capture instance with shutdown tag&lt;/font&gt;" style="rounded=0;whiteSpace=wrap;html=1;" parent="1" vertex="1">
                    <mxGeometry x="960" y="219" width="120" height="40" as="geometry"/>
                </mxCell>
                <mxCell id="56" style="edgeStyle=orthogonalEdgeStyle;html=1;entryX=0;entryY=0.5;entryDx=0;entryDy=0;" parent="1" source="48" target="55" edge="1">
                    <mxGeometry relative="1" as="geometry"/>
                </mxCell>
                <mxCell id="48" value="&lt;font style=&quot;font-size: 10px;&quot;&gt;shutdown instance&lt;/font&gt;" style="rounded=0;whiteSpace=wrap;html=1;" parent="1" vertex="1">
                    <mxGeometry x="960" y="400" width="120" height="40" as="geometry"/>
                </mxCell>
                <mxCell id="53" style="edgeStyle=none;html=1;entryX=0.5;entryY=0;entryDx=0;entryDy=0;" parent="1" source="49" target="48" edge="1">
                    <mxGeometry relative="1" as="geometry"/>
                </mxCell>
                <mxCell id="49" value="" style="rhombus;whiteSpace=wrap;html=1;fillColor=#76608a;fontColor=#ffffff;strokeColor=#432D57;" parent="1" vertex="1">
                    <mxGeometry x="990" y="290" width="60" height="60" as="geometry"/>
                </mxCell>
                <mxCell id="57" style="edgeStyle=orthogonalEdgeStyle;html=1;endArrow=none;endFill=0;" parent="1" source="50" edge="1">
                    <mxGeometry relative="1" as="geometry">
                        <mxPoint x="1120" y="150" as="targetPoint"/>
                    </mxGeometry>
                </mxCell>
                <mxCell id="50" value="&lt;font size=&quot;1&quot;&gt;is instance already shutdown?&lt;/font&gt;" style="text;html=1;strokeColor=none;fillColor=none;align=center;verticalAlign=middle;whiteSpace=wrap;rounded=0;" parent="1" vertex="1">
                    <mxGeometry x="976.25" y="305" width="87.5" height="30" as="geometry"/>
                </mxCell>
                <mxCell id="61" style="edgeStyle=orthogonalEdgeStyle;html=1;entryX=0.5;entryY=0;entryDx=0;entryDy=0;endArrow=classic;endFill=1;" parent="1" source="55" target="60" edge="1">
                    <mxGeometry relative="1" as="geometry"/>
                </mxCell>
                <mxCell id="55" value="&lt;font style=&quot;font-size: 10px;&quot;&gt;Capture instance state&lt;/font&gt;" style="rounded=0;whiteSpace=wrap;html=1;" parent="1" vertex="1">
                    <mxGeometry x="1160" y="120" width="120" height="40" as="geometry"/>
                </mxCell>
                <mxCell id="58" value="&lt;font style=&quot;font-size: 11px;&quot;&gt;yes&lt;/font&gt;" style="text;html=1;strokeColor=none;fillColor=none;align=center;verticalAlign=middle;whiteSpace=wrap;rounded=0;" parent="1" vertex="1">
                    <mxGeometry x="1050" y="320" width="60" height="30" as="geometry"/>
                </mxCell>
                <mxCell id="59" value="&lt;font style=&quot;font-size: 11px;&quot;&gt;no&lt;/font&gt;" style="text;html=1;strokeColor=none;fillColor=none;align=center;verticalAlign=middle;whiteSpace=wrap;rounded=0;" parent="1" vertex="1">
                    <mxGeometry x="970" y="340" width="60" height="30" as="geometry"/>
                </mxCell>
                <mxCell id="65" style="edgeStyle=orthogonalEdgeStyle;html=1;entryX=0.5;entryY=0;entryDx=0;entryDy=0;endArrow=classic;endFill=1;" parent="1" source="60" target="62" edge="1">
                    <mxGeometry relative="1" as="geometry"/>
                </mxCell>
                <mxCell id="60" value="&lt;font style=&quot;font-size: 10px;&quot;&gt;Generate HTML report&lt;/font&gt;" style="rounded=0;whiteSpace=wrap;html=1;" parent="1" vertex="1">
                    <mxGeometry x="1160" y="220" width="120" height="40" as="geometry"/>
                </mxCell>
                <mxCell id="64" style="edgeStyle=orthogonalEdgeStyle;html=1;entryX=0;entryY=0.5;entryDx=0;entryDy=0;endArrow=classic;endFill=1;" parent="1" source="62" target="63" edge="1">
                    <mxGeometry relative="1" as="geometry"/>
                </mxCell>
                <mxCell id="62" value="&lt;font style=&quot;font-size: 10px;&quot;&gt;Send email notification&lt;/font&gt;" style="rounded=0;whiteSpace=wrap;html=1;" parent="1" vertex="1">
                    <mxGeometry x="1160" y="320" width="120" height="40" as="geometry"/>
                </mxCell>
                <mxCell id="63" value="&lt;font style=&quot;font-size: 11px;&quot;&gt;exit&lt;/font&gt;" style="ellipse;whiteSpace=wrap;html=1;fillColor=#008a00;fontColor=#ffffff;strokeColor=#005700;" parent="1" vertex="1">
                    <mxGeometry x="1360" y="205" width="80" height="40" as="geometry"/>
                </mxCell>
            </root>
        </mxGraphModel>
    </diagram>
    <diagram id="EKkF0O92AFgp3_IHXJyz" name="start-flow-diagram">
        <mxGraphModel dx="948" dy="465" grid="1" gridSize="10" guides="1" tooltips="1" connect="1" arrows="1" fold="1" page="1" pageScale="1" pageWidth="850" pageHeight="1100" math="0" shadow="0">
            <root>
                <mxCell id="0"/>
                <mxCell id="1" parent="0"/>
                <mxCell id="nBpU5kKaj5SMffpIxo1Z-1" style="edgeStyle=none;html=1;entryX=0.5;entryY=0;entryDx=0;entryDy=0;" edge="1" parent="1" source="nBpU5kKaj5SMffpIxo1Z-2" target="nBpU5kKaj5SMffpIxo1Z-5">
                    <mxGeometry relative="1" as="geometry"/>
                </mxCell>
                <mxCell id="nBpU5kKaj5SMffpIxo1Z-2" value="&lt;span style=&quot;font-size: 10px;&quot;&gt;USER_ID&lt;/span&gt;" style="rounded=0;whiteSpace=wrap;html=1;" vertex="1" parent="1">
                    <mxGeometry x="120" y="120" width="120" height="40" as="geometry"/>
                </mxCell>
                <mxCell id="nBpU5kKaj5SMffpIxo1Z-3" style="edgeStyle=none;html=1;entryX=0.5;entryY=0;entryDx=0;entryDy=0;" edge="1" parent="1" source="nBpU5kKaj5SMffpIxo1Z-5" target="nBpU5kKaj5SMffpIxo1Z-7">
                    <mxGeometry relative="1" as="geometry"/>
                </mxCell>
                <mxCell id="nBpU5kKaj5SMffpIxo1Z-4" style="edgeStyle=orthogonalEdgeStyle;html=1;entryX=0;entryY=0.5;entryDx=0;entryDy=0;" edge="1" parent="1" source="nBpU5kKaj5SMffpIxo1Z-5" target="nBpU5kKaj5SMffpIxo1Z-9">
                    <mxGeometry relative="1" as="geometry"/>
                </mxCell>
                <mxCell id="nBpU5kKaj5SMffpIxo1Z-5" value="" style="rhombus;whiteSpace=wrap;html=1;fillColor=#76608a;fontColor=#ffffff;strokeColor=#432D57;" vertex="1" parent="1">
                    <mxGeometry x="150" y="210" width="60" height="60" as="geometry"/>
                </mxCell>
                <mxCell id="nBpU5kKaj5SMffpIxo1Z-6" value="&lt;font style=&quot;font-size: 9px;&quot;&gt;USER_ID = root?&lt;/font&gt;" style="text;html=1;strokeColor=none;fillColor=none;align=center;verticalAlign=middle;whiteSpace=wrap;rounded=0;" vertex="1" parent="1">
                    <mxGeometry x="125" y="225" width="110" height="30" as="geometry"/>
                </mxCell>
                <mxCell id="nBpU5kKaj5SMffpIxo1Z-7" value="&lt;font style=&quot;font-size: 11px;&quot;&gt;exit&lt;/font&gt;" style="ellipse;whiteSpace=wrap;html=1;fillColor=#e51400;fontColor=#ffffff;strokeColor=#B20000;" vertex="1" parent="1">
                    <mxGeometry x="140" y="320" width="80" height="40" as="geometry"/>
                </mxCell>
                <mxCell id="nBpU5kKaj5SMffpIxo1Z-8" style="edgeStyle=orthogonalEdgeStyle;html=1;entryX=0.5;entryY=0;entryDx=0;entryDy=0;" edge="1" parent="1" source="nBpU5kKaj5SMffpIxo1Z-9" target="nBpU5kKaj5SMffpIxo1Z-14">
                    <mxGeometry relative="1" as="geometry"/>
                </mxCell>
                <mxCell id="nBpU5kKaj5SMffpIxo1Z-9" value="&lt;font style=&quot;font-size: 10px;&quot;&gt;Install CLI tools&lt;/font&gt;" style="rounded=0;whiteSpace=wrap;html=1;" vertex="1" parent="1">
                    <mxGeometry x="320" y="120" width="120" height="40" as="geometry"/>
                </mxCell>
                <mxCell id="nBpU5kKaj5SMffpIxo1Z-10" value="&lt;font style=&quot;font-size: 11px;&quot;&gt;no&lt;/font&gt;" style="text;html=1;strokeColor=none;fillColor=none;align=center;verticalAlign=middle;whiteSpace=wrap;rounded=0;" vertex="1" parent="1">
                    <mxGeometry x="130" y="260" width="60" height="30" as="geometry"/>
                </mxCell>
                <mxCell id="nBpU5kKaj5SMffpIxo1Z-11" value="&lt;font style=&quot;font-size: 11px;&quot;&gt;yes&lt;/font&gt;" style="text;html=1;strokeColor=none;fillColor=none;align=center;verticalAlign=middle;whiteSpace=wrap;rounded=0;" vertex="1" parent="1">
                    <mxGeometry x="200" y="240" width="60" height="30" as="geometry"/>
                </mxCell>
                <mxCell id="nBpU5kKaj5SMffpIxo1Z-12" style="edgeStyle=orthogonalEdgeStyle;html=1;" edge="1" parent="1" source="nBpU5kKaj5SMffpIxo1Z-14" target="nBpU5kKaj5SMffpIxo1Z-19">
                    <mxGeometry relative="1" as="geometry"/>
                </mxCell>
                <mxCell id="nBpU5kKaj5SMffpIxo1Z-13" style="edgeStyle=orthogonalEdgeStyle;html=1;" edge="1" parent="1" source="nBpU5kKaj5SMffpIxo1Z-14" target="nBpU5kKaj5SMffpIxo1Z-22">
                    <mxGeometry relative="1" as="geometry"/>
                </mxCell>
                <mxCell id="nBpU5kKaj5SMffpIxo1Z-14" value="" style="rhombus;whiteSpace=wrap;html=1;fillColor=#76608a;fontColor=#ffffff;strokeColor=#432D57;" vertex="1" parent="1">
                    <mxGeometry x="350" y="210" width="60" height="60" as="geometry"/>
                </mxCell>
                <mxCell id="nBpU5kKaj5SMffpIxo1Z-15" value="&lt;font style=&quot;font-size: 9px;&quot;&gt;aws installed?&lt;/font&gt;" style="text;html=1;strokeColor=none;fillColor=none;align=center;verticalAlign=middle;whiteSpace=wrap;rounded=0;" vertex="1" parent="1">
                    <mxGeometry x="325" y="225" width="110" height="30" as="geometry"/>
                </mxCell>
                <mxCell id="nBpU5kKaj5SMffpIxo1Z-16" value="&lt;font style=&quot;font-size: 11px;&quot;&gt;no&lt;/font&gt;" style="text;html=1;strokeColor=none;fillColor=none;align=center;verticalAlign=middle;whiteSpace=wrap;rounded=0;" vertex="1" parent="1">
                    <mxGeometry x="395" y="210" width="60" height="30" as="geometry"/>
                </mxCell>
                <mxCell id="nBpU5kKaj5SMffpIxo1Z-17" value="&lt;font style=&quot;font-size: 11px;&quot;&gt;yes&lt;/font&gt;" style="text;html=1;strokeColor=none;fillColor=none;align=center;verticalAlign=middle;whiteSpace=wrap;rounded=0;" vertex="1" parent="1">
                    <mxGeometry x="325" y="260" width="60" height="30" as="geometry"/>
                </mxCell>
                <mxCell id="nBpU5kKaj5SMffpIxo1Z-18" style="edgeStyle=orthogonalEdgeStyle;html=1;entryX=0.5;entryY=0;entryDx=0;entryDy=0;" edge="1" parent="1" source="nBpU5kKaj5SMffpIxo1Z-19" target="nBpU5kKaj5SMffpIxo1Z-22">
                    <mxGeometry relative="1" as="geometry">
                        <Array as="points">
                            <mxPoint x="540" y="290"/>
                            <mxPoint x="380" y="290"/>
                        </Array>
                    </mxGeometry>
                </mxCell>
                <mxCell id="nBpU5kKaj5SMffpIxo1Z-19" value="&lt;font style=&quot;font-size: 10px;&quot;&gt;Install AWS CLI&lt;/font&gt;" style="rounded=0;whiteSpace=wrap;html=1;" vertex="1" parent="1">
                    <mxGeometry x="480" y="200" width="120" height="40" as="geometry"/>
                </mxCell>
                <mxCell id="nBpU5kKaj5SMffpIxo1Z-20" style="edgeStyle=orthogonalEdgeStyle;html=1;" edge="1" parent="1" source="nBpU5kKaj5SMffpIxo1Z-22" target="nBpU5kKaj5SMffpIxo1Z-27">
                    <mxGeometry relative="1" as="geometry"/>
                </mxCell>
                <mxCell id="nBpU5kKaj5SMffpIxo1Z-21" style="edgeStyle=orthogonalEdgeStyle;html=1;entryX=0;entryY=0.5;entryDx=0;entryDy=0;" edge="1" parent="1" source="nBpU5kKaj5SMffpIxo1Z-22" target="nBpU5kKaj5SMffpIxo1Z-29">
                    <mxGeometry relative="1" as="geometry">
                        <Array as="points">
                            <mxPoint x="380" y="430"/>
                            <mxPoint x="640" y="430"/>
                            <mxPoint x="640" y="140"/>
                        </Array>
                    </mxGeometry>
                </mxCell>
                <mxCell id="nBpU5kKaj5SMffpIxo1Z-22" value="" style="rhombus;whiteSpace=wrap;html=1;fillColor=#76608a;fontColor=#ffffff;strokeColor=#432D57;" vertex="1" parent="1">
                    <mxGeometry x="350" y="320" width="60" height="60" as="geometry"/>
                </mxCell>
                <mxCell id="nBpU5kKaj5SMffpIxo1Z-23" value="&lt;font style=&quot;font-size: 9px;&quot;&gt;az installed?&lt;/font&gt;" style="text;html=1;strokeColor=none;fillColor=none;align=center;verticalAlign=middle;whiteSpace=wrap;rounded=0;" vertex="1" parent="1">
                    <mxGeometry x="320" y="335" width="110" height="30" as="geometry"/>
                </mxCell>
                <mxCell id="nBpU5kKaj5SMffpIxo1Z-24" value="&lt;font style=&quot;font-size: 11px;&quot;&gt;no&lt;/font&gt;" style="text;html=1;strokeColor=none;fillColor=none;align=center;verticalAlign=middle;whiteSpace=wrap;rounded=0;" vertex="1" parent="1">
                    <mxGeometry x="395" y="320" width="60" height="30" as="geometry"/>
                </mxCell>
                <mxCell id="nBpU5kKaj5SMffpIxo1Z-25" value="&lt;font style=&quot;font-size: 11px;&quot;&gt;yes&lt;/font&gt;" style="text;html=1;strokeColor=none;fillColor=none;align=center;verticalAlign=middle;whiteSpace=wrap;rounded=0;" vertex="1" parent="1">
                    <mxGeometry x="325" y="380" width="60" height="30" as="geometry"/>
                </mxCell>
                <mxCell id="nBpU5kKaj5SMffpIxo1Z-26" style="edgeStyle=orthogonalEdgeStyle;html=1;" edge="1" parent="1" source="nBpU5kKaj5SMffpIxo1Z-27">
                    <mxGeometry relative="1" as="geometry">
                        <mxPoint x="680" y="140" as="targetPoint"/>
                        <Array as="points">
                            <mxPoint x="640" y="340"/>
                            <mxPoint x="640" y="140"/>
                        </Array>
                    </mxGeometry>
                </mxCell>
                <mxCell id="nBpU5kKaj5SMffpIxo1Z-27" value="&lt;font style=&quot;font-size: 10px;&quot;&gt;Install AWS CLI&lt;/font&gt;" style="rounded=0;whiteSpace=wrap;html=1;" vertex="1" parent="1">
                    <mxGeometry x="480" y="320" width="120" height="40" as="geometry"/>
                </mxCell>
                <mxCell id="nBpU5kKaj5SMffpIxo1Z-28" style="edgeStyle=orthogonalEdgeStyle;html=1;entryX=0.5;entryY=0;entryDx=0;entryDy=0;" edge="1" parent="1" source="nBpU5kKaj5SMffpIxo1Z-29" target="nBpU5kKaj5SMffpIxo1Z-32">
                    <mxGeometry relative="1" as="geometry"/>
                </mxCell>
                <mxCell id="nBpU5kKaj5SMffpIxo1Z-29" value="&lt;font style=&quot;font-size: 10px;&quot;&gt;CSP authentication&lt;/font&gt;" style="rounded=0;whiteSpace=wrap;html=1;" vertex="1" parent="1">
                    <mxGeometry x="680" y="120" width="120" height="40" as="geometry"/>
                </mxCell>
                <mxCell id="nBpU5kKaj5SMffpIxo1Z-30" style="edgeStyle=orthogonalEdgeStyle;html=1;entryX=0.5;entryY=0;entryDx=0;entryDy=0;fontColor=#FFFFFF;" edge="1" parent="1" source="nBpU5kKaj5SMffpIxo1Z-32" target="nBpU5kKaj5SMffpIxo1Z-36">
                    <mxGeometry relative="1" as="geometry"/>
                </mxCell>
                <mxCell id="nBpU5kKaj5SMffpIxo1Z-31" style="edgeStyle=orthogonalEdgeStyle;html=1;entryX=0;entryY=0.5;entryDx=0;entryDy=0;" edge="1" parent="1" source="nBpU5kKaj5SMffpIxo1Z-32" target="nBpU5kKaj5SMffpIxo1Z-41">
                    <mxGeometry relative="1" as="geometry"/>
                </mxCell>
                <mxCell id="nBpU5kKaj5SMffpIxo1Z-32" value="" style="rhombus;whiteSpace=wrap;html=1;fillColor=#76608a;fontColor=#ffffff;strokeColor=#432D57;" vertex="1" parent="1">
                    <mxGeometry x="707.5" y="210" width="60" height="60" as="geometry"/>
                </mxCell>
                <mxCell id="nBpU5kKaj5SMffpIxo1Z-33" value="&lt;font size=&quot;1&quot;&gt;already logged in?&lt;/font&gt;" style="text;html=1;strokeColor=none;fillColor=none;align=center;verticalAlign=middle;whiteSpace=wrap;rounded=0;" vertex="1" parent="1">
                    <mxGeometry x="700" y="229" width="75" height="30" as="geometry"/>
                </mxCell>
                <mxCell id="nBpU5kKaj5SMffpIxo1Z-34" style="edgeStyle=orthogonalEdgeStyle;html=1;entryX=0.5;entryY=1;entryDx=0;entryDy=0;fontSize=10;fontColor=#2A0A05;" edge="1" parent="1" source="nBpU5kKaj5SMffpIxo1Z-36" target="nBpU5kKaj5SMffpIxo1Z-39">
                    <mxGeometry relative="1" as="geometry"/>
                </mxCell>
                <mxCell id="nBpU5kKaj5SMffpIxo1Z-35" style="edgeStyle=orthogonalEdgeStyle;html=1;entryX=0.5;entryY=1;entryDx=0;entryDy=0;" edge="1" parent="1" source="nBpU5kKaj5SMffpIxo1Z-36" target="nBpU5kKaj5SMffpIxo1Z-7">
                    <mxGeometry relative="1" as="geometry">
                        <Array as="points">
                            <mxPoint x="738" y="480"/>
                            <mxPoint x="180" y="480"/>
                        </Array>
                    </mxGeometry>
                </mxCell>
                <mxCell id="nBpU5kKaj5SMffpIxo1Z-36" value="" style="rhombus;whiteSpace=wrap;html=1;fillColor=#76608a;fontColor=#ffffff;strokeColor=#432D57;" vertex="1" parent="1">
                    <mxGeometry x="707.5" y="305" width="60" height="60" as="geometry"/>
                </mxCell>
                <mxCell id="nBpU5kKaj5SMffpIxo1Z-37" value="&lt;font size=&quot;1&quot;&gt;is creds file found?&lt;/font&gt;" style="text;html=1;strokeColor=none;fillColor=none;align=center;verticalAlign=middle;whiteSpace=wrap;rounded=0;" vertex="1" parent="1">
                    <mxGeometry x="700" y="320" width="75" height="30" as="geometry"/>
                </mxCell>
                <mxCell id="nBpU5kKaj5SMffpIxo1Z-38" style="edgeStyle=orthogonalEdgeStyle;html=1;entryX=0;entryY=0.5;entryDx=0;entryDy=0;" edge="1" parent="1" source="nBpU5kKaj5SMffpIxo1Z-39" target="nBpU5kKaj5SMffpIxo1Z-41">
                    <mxGeometry relative="1" as="geometry"/>
                </mxCell>
                <mxCell id="nBpU5kKaj5SMffpIxo1Z-39" value="&lt;font style=&quot;font-size: 10px;&quot; color=&quot;#2a0a05&quot;&gt;authenticate to aws/azure&lt;/font&gt;" style="rounded=0;whiteSpace=wrap;html=1;fontColor=#FFFFFF;" vertex="1" parent="1">
                    <mxGeometry x="797.5" y="255" width="120" height="35" as="geometry"/>
                </mxCell>
                <mxCell id="nBpU5kKaj5SMffpIxo1Z-40" style="edgeStyle=none;html=1;entryX=0.5;entryY=0;entryDx=0;entryDy=0;" edge="1" parent="1" source="nBpU5kKaj5SMffpIxo1Z-41" target="nBpU5kKaj5SMffpIxo1Z-47">
                    <mxGeometry relative="1" as="geometry"/>
                </mxCell>
                <mxCell id="nBpU5kKaj5SMffpIxo1Z-41" value="&lt;font style=&quot;font-size: 10px;&quot;&gt;Start Instance&lt;/font&gt;" style="rounded=0;whiteSpace=wrap;html=1;fillColor=#d5e8d4;strokeColor=#82b366;" vertex="1" parent="1">
                    <mxGeometry x="960" y="120" width="120" height="40" as="geometry"/>
                </mxCell>
                <mxCell id="nBpU5kKaj5SMffpIxo1Z-42" value="&lt;font style=&quot;font-size: 11px;&quot;&gt;no&lt;/font&gt;" style="text;html=1;strokeColor=none;fillColor=none;align=center;verticalAlign=middle;whiteSpace=wrap;rounded=0;" vertex="1" parent="1">
                    <mxGeometry x="680" y="260" width="60" height="30" as="geometry"/>
                </mxCell>
                <mxCell id="nBpU5kKaj5SMffpIxo1Z-43" value="&lt;font style=&quot;font-size: 11px;&quot;&gt;yes&lt;/font&gt;" style="text;html=1;strokeColor=none;fillColor=none;align=center;verticalAlign=middle;whiteSpace=wrap;rounded=0;" vertex="1" parent="1">
                    <mxGeometry x="760" y="210" width="60" height="30" as="geometry"/>
                </mxCell>
                <mxCell id="nBpU5kKaj5SMffpIxo1Z-44" value="&lt;font style=&quot;font-size: 11px;&quot;&gt;yes&lt;/font&gt;" style="text;html=1;strokeColor=none;fillColor=none;align=center;verticalAlign=middle;whiteSpace=wrap;rounded=0;" vertex="1" parent="1">
                    <mxGeometry x="760" y="335" width="60" height="30" as="geometry"/>
                </mxCell>
                <mxCell id="nBpU5kKaj5SMffpIxo1Z-45" value="&lt;font style=&quot;font-size: 11px;&quot;&gt;no&lt;/font&gt;" style="text;html=1;strokeColor=none;fillColor=none;align=center;verticalAlign=middle;whiteSpace=wrap;rounded=0;" vertex="1" parent="1">
                    <mxGeometry x="690" y="360" width="60" height="30" as="geometry"/>
                </mxCell>
                <mxCell id="nBpU5kKaj5SMffpIxo1Z-46" style="edgeStyle=none;html=1;entryX=0.5;entryY=0;entryDx=0;entryDy=0;" edge="1" parent="1" source="nBpU5kKaj5SMffpIxo1Z-47" target="nBpU5kKaj5SMffpIxo1Z-51">
                    <mxGeometry relative="1" as="geometry"/>
                </mxCell>
                <mxCell id="nBpU5kKaj5SMffpIxo1Z-47" value="&lt;font style=&quot;font-size: 10px;&quot;&gt;capture instance with shutdown tag&lt;/font&gt;" style="rounded=0;whiteSpace=wrap;html=1;" vertex="1" parent="1">
                    <mxGeometry x="960" y="219" width="120" height="40" as="geometry"/>
                </mxCell>
                <mxCell id="nBpU5kKaj5SMffpIxo1Z-48" style="edgeStyle=orthogonalEdgeStyle;html=1;entryX=0;entryY=0.5;entryDx=0;entryDy=0;" edge="1" parent="1" source="nBpU5kKaj5SMffpIxo1Z-49" target="nBpU5kKaj5SMffpIxo1Z-55">
                    <mxGeometry relative="1" as="geometry"/>
                </mxCell>
                <mxCell id="nBpU5kKaj5SMffpIxo1Z-49" value="&lt;font style=&quot;font-size: 10px;&quot;&gt;start instances&lt;/font&gt;" style="rounded=0;whiteSpace=wrap;html=1;" vertex="1" parent="1">
                    <mxGeometry x="960" y="400" width="120" height="40" as="geometry"/>
                </mxCell>
                <mxCell id="nBpU5kKaj5SMffpIxo1Z-50" style="edgeStyle=none;html=1;entryX=0.5;entryY=0;entryDx=0;entryDy=0;" edge="1" parent="1" source="nBpU5kKaj5SMffpIxo1Z-51" target="nBpU5kKaj5SMffpIxo1Z-49">
                    <mxGeometry relative="1" as="geometry"/>
                </mxCell>
                <mxCell id="nBpU5kKaj5SMffpIxo1Z-51" value="" style="rhombus;whiteSpace=wrap;html=1;fillColor=#76608a;fontColor=#ffffff;strokeColor=#432D57;" vertex="1" parent="1">
                    <mxGeometry x="990" y="290" width="60" height="60" as="geometry"/>
                </mxCell>
                <mxCell id="nBpU5kKaj5SMffpIxo1Z-52" style="edgeStyle=orthogonalEdgeStyle;html=1;endArrow=none;endFill=0;" edge="1" parent="1" source="nBpU5kKaj5SMffpIxo1Z-53">
                    <mxGeometry relative="1" as="geometry">
                        <mxPoint x="1120" y="150" as="targetPoint"/>
                    </mxGeometry>
                </mxCell>
                <mxCell id="nBpU5kKaj5SMffpIxo1Z-53" value="&lt;font size=&quot;1&quot;&gt;is instance already started?&lt;/font&gt;" style="text;html=1;strokeColor=none;fillColor=none;align=center;verticalAlign=middle;whiteSpace=wrap;rounded=0;" vertex="1" parent="1">
                    <mxGeometry x="976.25" y="305" width="87.5" height="30" as="geometry"/>
                </mxCell>
                <mxCell id="nBpU5kKaj5SMffpIxo1Z-54" style="edgeStyle=orthogonalEdgeStyle;html=1;entryX=0.5;entryY=0;entryDx=0;entryDy=0;endArrow=classic;endFill=1;" edge="1" parent="1" source="nBpU5kKaj5SMffpIxo1Z-55" target="nBpU5kKaj5SMffpIxo1Z-59">
                    <mxGeometry relative="1" as="geometry"/>
                </mxCell>
                <mxCell id="nBpU5kKaj5SMffpIxo1Z-55" value="&lt;font style=&quot;font-size: 10px;&quot;&gt;Capture instance state&lt;/font&gt;" style="rounded=0;whiteSpace=wrap;html=1;" vertex="1" parent="1">
                    <mxGeometry x="1160" y="120" width="120" height="40" as="geometry"/>
                </mxCell>
                <mxCell id="nBpU5kKaj5SMffpIxo1Z-56" value="&lt;font style=&quot;font-size: 11px;&quot;&gt;yes&lt;/font&gt;" style="text;html=1;strokeColor=none;fillColor=none;align=center;verticalAlign=middle;whiteSpace=wrap;rounded=0;" vertex="1" parent="1">
                    <mxGeometry x="1050" y="320" width="60" height="30" as="geometry"/>
                </mxCell>
                <mxCell id="nBpU5kKaj5SMffpIxo1Z-57" value="&lt;font style=&quot;font-size: 11px;&quot;&gt;no&lt;/font&gt;" style="text;html=1;strokeColor=none;fillColor=none;align=center;verticalAlign=middle;whiteSpace=wrap;rounded=0;" vertex="1" parent="1">
                    <mxGeometry x="970" y="340" width="60" height="30" as="geometry"/>
                </mxCell>
                <mxCell id="nBpU5kKaj5SMffpIxo1Z-58" style="edgeStyle=orthogonalEdgeStyle;html=1;entryX=0.5;entryY=0;entryDx=0;entryDy=0;endArrow=classic;endFill=1;" edge="1" parent="1" source="nBpU5kKaj5SMffpIxo1Z-59" target="nBpU5kKaj5SMffpIxo1Z-61">
                    <mxGeometry relative="1" as="geometry"/>
                </mxCell>
                <mxCell id="nBpU5kKaj5SMffpIxo1Z-59" value="&lt;font style=&quot;font-size: 10px;&quot;&gt;Generate HTML report&lt;/font&gt;" style="rounded=0;whiteSpace=wrap;html=1;" vertex="1" parent="1">
                    <mxGeometry x="1160" y="220" width="120" height="40" as="geometry"/>
                </mxCell>
                <mxCell id="nBpU5kKaj5SMffpIxo1Z-60" style="edgeStyle=orthogonalEdgeStyle;html=1;entryX=0;entryY=0.5;entryDx=0;entryDy=0;endArrow=classic;endFill=1;" edge="1" parent="1" source="nBpU5kKaj5SMffpIxo1Z-61" target="nBpU5kKaj5SMffpIxo1Z-62">
                    <mxGeometry relative="1" as="geometry"/>
                </mxCell>
                <mxCell id="nBpU5kKaj5SMffpIxo1Z-61" value="&lt;font style=&quot;font-size: 10px;&quot;&gt;Send email notification&lt;/font&gt;" style="rounded=0;whiteSpace=wrap;html=1;" vertex="1" parent="1">
                    <mxGeometry x="1160" y="320" width="120" height="40" as="geometry"/>
                </mxCell>
                <mxCell id="nBpU5kKaj5SMffpIxo1Z-62" value="&lt;font style=&quot;font-size: 11px;&quot;&gt;exit&lt;/font&gt;" style="ellipse;whiteSpace=wrap;html=1;fillColor=#008a00;fontColor=#ffffff;strokeColor=#005700;" vertex="1" parent="1">
                    <mxGeometry x="1360" y="205" width="80" height="40" as="geometry"/>
                </mxCell>
            </root>
        </mxGraphModel>
    </diagram>
    <diagram id="KnQ0-BiyVxPvru-CCTVp" name="ci-pipeline">
        <mxGraphModel dx="1830" dy="422" grid="1" gridSize="10" guides="1" tooltips="1" connect="1" arrows="1" fold="1" page="1" pageScale="1" pageWidth="850" pageHeight="1100" math="0" shadow="0">
            <root>
                <mxCell id="0"/>
                <mxCell id="1" parent="0"/>
                <mxCell id="2JDOX9HzNL3V3WO9CCiI-3" style="edgeStyle=orthogonalEdgeStyle;html=1;entryX=0;entryY=0.5;entryDx=0;entryDy=0;" edge="1" parent="1" source="2JDOX9HzNL3V3WO9CCiI-1" target="2JDOX9HzNL3V3WO9CCiI-2">
                    <mxGeometry relative="1" as="geometry">
                        <mxPoint x="130" y="250" as="targetPoint"/>
                    </mxGeometry>
                </mxCell>
                <mxCell id="2JDOX9HzNL3V3WO9CCiI-1" value="feature/some-feature-name" style="rounded=0;whiteSpace=wrap;html=1;" vertex="1" parent="1">
                    <mxGeometry x="80" y="120" width="160" height="40" as="geometry"/>
                </mxCell>
                <mxCell id="2JDOX9HzNL3V3WO9CCiI-6" style="edgeStyle=orthogonalEdgeStyle;html=1;" edge="1" parent="1" source="2JDOX9HzNL3V3WO9CCiI-2" target="2JDOX9HzNL3V3WO9CCiI-5">
                    <mxGeometry relative="1" as="geometry"/>
                </mxCell>
                <mxCell id="2JDOX9HzNL3V3WO9CCiI-2" value="lint (shellcheck modified)" style="rounded=1;whiteSpace=wrap;html=1;" vertex="1" parent="1">
                    <mxGeometry x="200" y="240" width="120" height="40" as="geometry"/>
                </mxCell>
                <mxCell id="2JDOX9HzNL3V3WO9CCiI-4" value="Push to remote" style="text;html=1;strokeColor=none;fillColor=none;align=center;verticalAlign=middle;whiteSpace=wrap;rounded=0;" vertex="1" parent="1">
                    <mxGeometry x="100" y="200" width="60" height="30" as="geometry"/>
                </mxCell>
                <mxCell id="2JDOX9HzNL3V3WO9CCiI-8" style="edgeStyle=orthogonalEdgeStyle;html=1;" edge="1" parent="1" source="2JDOX9HzNL3V3WO9CCiI-5" target="2JDOX9HzNL3V3WO9CCiI-7">
                    <mxGeometry relative="1" as="geometry"/>
                </mxCell>
                <mxCell id="2JDOX9HzNL3V3WO9CCiI-5" value="secret-detect" style="rounded=1;whiteSpace=wrap;html=1;" vertex="1" parent="1">
                    <mxGeometry x="400" y="240" width="120" height="40" as="geometry"/>
                </mxCell>
                <mxCell id="2JDOX9HzNL3V3WO9CCiI-10" style="edgeStyle=orthogonalEdgeStyle;html=1;entryX=0;entryY=0.5;entryDx=0;entryDy=0;" edge="1" parent="1" source="2JDOX9HzNL3V3WO9CCiI-7" target="2JDOX9HzNL3V3WO9CCiI-9">
                    <mxGeometry relative="1" as="geometry"/>
                </mxCell>
                <mxCell id="2JDOX9HzNL3V3WO9CCiI-7" value="feature merge to main" style="rounded=1;whiteSpace=wrap;html=1;" vertex="1" parent="1">
                    <mxGeometry x="600" y="240" width="120" height="40" as="geometry"/>
                </mxCell>
                <mxCell id="2JDOX9HzNL3V3WO9CCiI-12" style="edgeStyle=orthogonalEdgeStyle;html=1;entryX=0.5;entryY=0;entryDx=0;entryDy=0;exitX=0.558;exitY=1;exitDx=0;exitDy=0;exitPerimeter=0;" edge="1" parent="1" source="2JDOX9HzNL3V3WO9CCiI-24" target="2JDOX9HzNL3V3WO9CCiI-11">
                    <mxGeometry relative="1" as="geometry">
                        <Array as="points">
                            <mxPoint x="1067" y="310"/>
                            <mxPoint x="260" y="310"/>
                        </Array>
                    </mxGeometry>
                </mxCell>
                <mxCell id="2JDOX9HzNL3V3WO9CCiI-16" style="edgeStyle=orthogonalEdgeStyle;html=1;entryX=0.5;entryY=0;entryDx=0;entryDy=0;exitX=0.5;exitY=0;exitDx=0;exitDy=0;" edge="1" parent="1" source="2JDOX9HzNL3V3WO9CCiI-24" target="2JDOX9HzNL3V3WO9CCiI-7">
                    <mxGeometry relative="1" as="geometry">
                        <Array as="points">
                            <mxPoint x="1060" y="180"/>
                            <mxPoint x="660" y="180"/>
                        </Array>
                    </mxGeometry>
                </mxCell>
                <mxCell id="2JDOX9HzNL3V3WO9CCiI-25" style="edgeStyle=orthogonalEdgeStyle;html=1;" edge="1" parent="1" source="2JDOX9HzNL3V3WO9CCiI-9" target="2JDOX9HzNL3V3WO9CCiI-24">
                    <mxGeometry relative="1" as="geometry"/>
                </mxCell>
                <mxCell id="2JDOX9HzNL3V3WO9CCiI-9" value="lint (shellcheck all files)" style="rounded=1;whiteSpace=wrap;html=1;" vertex="1" parent="1">
                    <mxGeometry x="800" y="240" width="120" height="40" as="geometry"/>
                </mxCell>
                <mxCell id="2JDOX9HzNL3V3WO9CCiI-14" style="edgeStyle=orthogonalEdgeStyle;html=1;entryX=0;entryY=0.5;entryDx=0;entryDy=0;" edge="1" parent="1" source="2JDOX9HzNL3V3WO9CCiI-11" target="2JDOX9HzNL3V3WO9CCiI-13">
                    <mxGeometry relative="1" as="geometry"/>
                </mxCell>
                <mxCell id="2JDOX9HzNL3V3WO9CCiI-11" value="merged to main" style="rounded=1;whiteSpace=wrap;html=1;" vertex="1" parent="1">
                    <mxGeometry x="200" y="340" width="120" height="40" as="geometry"/>
                </mxCell>
                <mxCell id="2JDOX9HzNL3V3WO9CCiI-13" value="deploy stage" style="rounded=1;whiteSpace=wrap;html=1;fillColor=#e51400;fontColor=#ffffff;strokeColor=#B20000;" vertex="1" parent="1">
                    <mxGeometry x="400" y="340" width="120" height="40" as="geometry"/>
                </mxCell>
                <mxCell id="2JDOX9HzNL3V3WO9CCiI-15" value="PR approved" style="text;html=1;strokeColor=none;fillColor=none;align=center;verticalAlign=middle;whiteSpace=wrap;rounded=0;" vertex="1" parent="1">
                    <mxGeometry x="670" y="287" width="100" height="30" as="geometry"/>
                </mxCell>
                <mxCell id="2JDOX9HzNL3V3WO9CCiI-17" value="PR feedback / pipeline failure" style="text;html=1;strokeColor=none;fillColor=none;align=center;verticalAlign=middle;whiteSpace=wrap;rounded=0;" vertex="1" parent="1">
                    <mxGeometry x="790" y="150" width="170" height="30" as="geometry"/>
                </mxCell>
                <mxCell id="2JDOX9HzNL3V3WO9CCiI-22" value="merge_request&amp;nbsp;&lt;br&gt;event" style="ellipse;whiteSpace=wrap;html=1;fillColor=#008a00;fontColor=#ffffff;strokeColor=#005700;" vertex="1" parent="1">
                    <mxGeometry x="540" y="180" width="110" height="30" as="geometry"/>
                </mxCell>
                <mxCell id="2JDOX9HzNL3V3WO9CCiI-23" value="commit_event" style="ellipse;whiteSpace=wrap;html=1;fillColor=#008a00;fontColor=#ffffff;strokeColor=#005700;" vertex="1" parent="1">
                    <mxGeometry x="-20" y="180" width="110" height="30" as="geometry"/>
                </mxCell>
                <mxCell id="2JDOX9HzNL3V3WO9CCiI-24" value="PR review/approval" style="rounded=1;whiteSpace=wrap;html=1;" vertex="1" parent="1">
                    <mxGeometry x="1000" y="240" width="120" height="40" as="geometry"/>
                </mxCell>
                <mxCell id="2JDOX9HzNL3V3WO9CCiI-26" style="edgeStyle=orthogonalEdgeStyle;html=1;entryX=0;entryY=0.5;entryDx=0;entryDy=0;" edge="1" parent="1" source="2JDOX9HzNL3V3WO9CCiI-27" target="2JDOX9HzNL3V3WO9CCiI-29">
                    <mxGeometry relative="1" as="geometry">
                        <mxPoint x="140" y="600" as="targetPoint"/>
                    </mxGeometry>
                </mxCell>
                <mxCell id="2JDOX9HzNL3V3WO9CCiI-27" value="feature/some-feature-name" style="rounded=0;whiteSpace=wrap;html=1;" vertex="1" parent="1">
                    <mxGeometry x="90" y="470" width="160" height="40" as="geometry"/>
                </mxCell>
                <mxCell id="2JDOX9HzNL3V3WO9CCiI-28" style="edgeStyle=orthogonalEdgeStyle;html=1;" edge="1" parent="1" source="2JDOX9HzNL3V3WO9CCiI-29" target="2JDOX9HzNL3V3WO9CCiI-32">
                    <mxGeometry relative="1" as="geometry"/>
                </mxCell>
                <mxCell id="2JDOX9HzNL3V3WO9CCiI-29" value="feature PR to main" style="rounded=1;whiteSpace=wrap;html=1;" vertex="1" parent="1">
                    <mxGeometry x="210" y="590" width="120" height="40" as="geometry"/>
                </mxCell>
                <mxCell id="2JDOX9HzNL3V3WO9CCiI-30" value="Push to remote" style="text;html=1;strokeColor=none;fillColor=none;align=center;verticalAlign=middle;whiteSpace=wrap;rounded=0;" vertex="1" parent="1">
                    <mxGeometry x="110" y="550" width="60" height="30" as="geometry"/>
                </mxCell>
                <mxCell id="2JDOX9HzNL3V3WO9CCiI-31" style="edgeStyle=orthogonalEdgeStyle;html=1;" edge="1" parent="1" source="2JDOX9HzNL3V3WO9CCiI-32" target="2JDOX9HzNL3V3WO9CCiI-34">
                    <mxGeometry relative="1" as="geometry"/>
                </mxCell>
                <mxCell id="2JDOX9HzNL3V3WO9CCiI-32" value="shell format" style="rounded=1;whiteSpace=wrap;html=1;" vertex="1" parent="1">
                    <mxGeometry x="410" y="590" width="120" height="40" as="geometry"/>
                </mxCell>
                <mxCell id="2JDOX9HzNL3V3WO9CCiI-33" style="edgeStyle=orthogonalEdgeStyle;html=1;entryX=0;entryY=0.5;entryDx=0;entryDy=0;" edge="1" parent="1" source="2JDOX9HzNL3V3WO9CCiI-34" target="2JDOX9HzNL3V3WO9CCiI-38">
                    <mxGeometry relative="1" as="geometry"/>
                </mxCell>
                <mxCell id="2JDOX9HzNL3V3WO9CCiI-34" value="lint (shellcheck modified)" style="rounded=1;whiteSpace=wrap;html=1;" vertex="1" parent="1">
                    <mxGeometry x="610" y="590" width="120" height="40" as="geometry"/>
                </mxCell>
                <mxCell id="2JDOX9HzNL3V3WO9CCiI-35" style="edgeStyle=orthogonalEdgeStyle;html=1;entryX=0.5;entryY=0;entryDx=0;entryDy=0;exitX=0.558;exitY=1;exitDx=0;exitDy=0;exitPerimeter=0;" edge="1" parent="1" source="2JDOX9HzNL3V3WO9CCiI-46" target="2JDOX9HzNL3V3WO9CCiI-40">
                    <mxGeometry relative="1" as="geometry">
                        <Array as="points">
                            <mxPoint x="1077" y="660"/>
                            <mxPoint x="270" y="660"/>
                        </Array>
                    </mxGeometry>
                </mxCell>
                <mxCell id="2JDOX9HzNL3V3WO9CCiI-36" style="edgeStyle=orthogonalEdgeStyle;html=1;entryX=0.5;entryY=0;entryDx=0;entryDy=0;exitX=0.5;exitY=0;exitDx=0;exitDy=0;" edge="1" parent="1" source="2JDOX9HzNL3V3WO9CCiI-46" target="2JDOX9HzNL3V3WO9CCiI-29">
                    <mxGeometry relative="1" as="geometry">
                        <Array as="points">
                            <mxPoint x="1070" y="530"/>
                            <mxPoint x="270" y="530"/>
                        </Array>
                    </mxGeometry>
                </mxCell>
                <mxCell id="2JDOX9HzNL3V3WO9CCiI-37" style="edgeStyle=orthogonalEdgeStyle;html=1;" edge="1" parent="1" source="2JDOX9HzNL3V3WO9CCiI-38" target="2JDOX9HzNL3V3WO9CCiI-46">
                    <mxGeometry relative="1" as="geometry"/>
                </mxCell>
                <mxCell id="2JDOX9HzNL3V3WO9CCiI-38" value="secret-detect" style="rounded=1;whiteSpace=wrap;html=1;" vertex="1" parent="1">
                    <mxGeometry x="810" y="590" width="120" height="40" as="geometry"/>
                </mxCell>
                <mxCell id="2JDOX9HzNL3V3WO9CCiI-39" style="edgeStyle=orthogonalEdgeStyle;html=1;entryX=0;entryY=0.5;entryDx=0;entryDy=0;" edge="1" parent="1" source="2JDOX9HzNL3V3WO9CCiI-40">
                    <mxGeometry relative="1" as="geometry">
                        <mxPoint x="410" y="710" as="targetPoint"/>
                    </mxGeometry>
                </mxCell>
                <mxCell id="2JDOX9HzNL3V3WO9CCiI-40" value="merged to main" style="rounded=1;whiteSpace=wrap;html=1;" vertex="1" parent="1">
                    <mxGeometry x="210" y="690" width="120" height="40" as="geometry"/>
                </mxCell>
                <mxCell id="2JDOX9HzNL3V3WO9CCiI-42" value="PR approved" style="text;html=1;strokeColor=none;fillColor=none;align=center;verticalAlign=middle;whiteSpace=wrap;rounded=0;" vertex="1" parent="1">
                    <mxGeometry x="680" y="660" width="100" height="30" as="geometry"/>
                </mxCell>
                <mxCell id="2JDOX9HzNL3V3WO9CCiI-43" value="PR feedback / pipeline failure" style="text;html=1;strokeColor=none;fillColor=none;align=center;verticalAlign=middle;whiteSpace=wrap;rounded=0;" vertex="1" parent="1">
                    <mxGeometry x="800" y="500" width="170" height="30" as="geometry"/>
                </mxCell>
                <mxCell id="2JDOX9HzNL3V3WO9CCiI-44" value="merge_request&amp;nbsp;&lt;br&gt;event" style="ellipse;whiteSpace=wrap;html=1;fillColor=#008a00;fontColor=#ffffff;strokeColor=#005700;" vertex="1" parent="1">
                    <mxGeometry x="280" y="550" width="110" height="30" as="geometry"/>
                </mxCell>
                <mxCell id="2JDOX9HzNL3V3WO9CCiI-46" value="PR review/approval" style="rounded=1;whiteSpace=wrap;html=1;" vertex="1" parent="1">
                    <mxGeometry x="1010" y="590" width="120" height="40" as="geometry"/>
                </mxCell>
                <mxCell id="2JDOX9HzNL3V3WO9CCiI-47" value="lint (shellcheck all files)" style="rounded=1;whiteSpace=wrap;html=1;" vertex="1" parent="1">
                    <mxGeometry x="410" y="690" width="120" height="40" as="geometry"/>
                </mxCell>
                <mxCell id="2JDOX9HzNL3V3WO9CCiI-49" value="commit_event" style="ellipse;whiteSpace=wrap;html=1;fillColor=#008a00;fontColor=#ffffff;strokeColor=#005700;" vertex="1" parent="1">
                    <mxGeometry x="340" y="740" width="110" height="30" as="geometry"/>
                </mxCell>
            </root>
        </mxGraphModel>
    </diagram>
</mxfile>
